<svg version="1.1" id="Layer_1" xmlns="http://www.w3.org/2000/svg" xmlns:xlink="http://www.w3.org/1999/xlink" x="0px" y="0px"
	 width="100%" viewBox="0 0 512 512" enable-background="new 0 0 512 512" xml:space="preserve">
<path fill="#ffffff" opacity="1.000000" stroke="none" 
	d="
M363.531342,0.999999 
	C370.648743,3.483488 377.523651,5.494572 383.900146,8.546829 
	C398.043701,15.316970 407.079376,26.940870 412.968872,41.184219 
	C416.116150,48.795647 417.084595,56.744244 417.069122,64.999092 
	C416.945374,130.966095 417.360626,196.936691 416.762665,262.898499 
	C416.600189,280.823303 407.772919,295.605042 393.696045,307.071808 
	C384.718292,314.384918 374.408539,318.486298 363.267365,320.840790 
	C361.670746,321.178192 359.956909,320.994995 358.297302,320.995117 
	C281.502106,321.000732 204.706802,321.055298 127.911995,320.880829 
	C122.550156,320.868652 118.136116,321.806366 114.076324,325.351715 
	C105.335686,332.984833 96.472412,340.480652 87.555305,347.907776 
	C76.536751,357.085297 65.380768,366.097687 54.344261,375.253906 
	C45.667732,382.452209 36.981678,389.644897 28.484533,397.051910 
	C19.726408,404.686401 4.927104,401.377563 1.346150,391.091522 
	C1.000000,277.645782 1.000000,164.291550 1.366332,50.368401 
	C2.823131,47.006214 3.883544,44.200771 5.009115,41.421715 
	C10.777360,27.179813 19.652197,15.540161 33.774551,8.801039 
	C40.276619,5.698280 47.243748,3.570094 54.000000,1.000000 
	C157.020889,1.000000 260.041779,1.000000 363.531342,0.999999 
M253.500000,289.000000 
	C259.164642,289.000000 264.829895,289.052948 270.493866,288.991058 
	C299.231659,288.677063 327.972656,288.499939 356.704407,287.891357 
	C364.605774,287.723969 371.327911,283.684418 376.521393,277.851501 
	C382.961121,270.618896 384.902740,261.503510 384.929810,252.177399 
	C385.077393,201.361969 385.065857,150.545746 384.954285,99.730118 
	C384.925934,86.819763 384.638794,73.892822 383.886566,61.007584 
	C383.427704,53.147491 379.533203,46.447025 373.620514,41.303570 
	C366.160400,34.814034 356.881989,33.064110 347.385376,33.053658 
	C263.414337,32.961235 179.443146,32.961731 95.472092,33.044411 
	C83.894958,33.055809 72.293518,33.312824 60.750404,34.125050 
	C53.110050,34.662659 46.493664,38.426060 41.439922,44.182213 
	C34.919689,51.608688 33.062031,60.862411 33.052856,70.374168 
	C32.964603,161.842636 33.000000,253.311203 33.000000,344.779755 
	C33.000000,346.369141 33.000000,347.958527 33.000000,349.929047 
	C43.974941,340.866760 54.548058,332.233826 65.011383,323.469788 
	C76.038834,314.233215 86.963593,304.873962 97.928932,295.563263 
	C103.593567,290.753418 109.778236,288.734680 117.548149,288.804016 
	C162.529099,289.205322 207.515472,289.000000 253.500000,289.000000 
z"/>
<path fill="#ffffff" opacity="1.000000" stroke="none" 
	d="
M491.460632,513.000000 
	C479.419891,503.918701 467.799408,494.888336 456.269684,485.743530 
	C441.234406,473.818207 426.307404,461.755890 411.207642,449.913422 
	C410.003723,448.969208 407.819550,449.035461 406.090698,449.034515 
	C333.613678,448.994293 261.133972,449.347168 188.661118,448.795685 
	C165.909531,448.622589 148.661926,436.882843 137.146378,417.350647 
	C131.023453,406.965210 128.120941,395.574615 128.944687,383.339691 
	C129.279694,378.363831 128.998871,373.346558 129.000229,368.348145 
	C129.002930,358.439697 134.900101,352.996521 145.626633,353.000000 
	C155.240280,353.003113 161.032349,358.847198 160.990402,368.601685 
	C160.949585,378.094208 160.553940,387.648743 164.040268,396.717621 
	C168.202972,407.545929 177.922974,415.662476 189.717484,415.841522 
	C236.944168,416.558594 284.179749,416.735779 331.412720,416.973969 
	C359.569763,417.115967 387.728912,417.109894 415.885101,416.901550 
	C421.128784,416.862732 425.217285,418.358124 429.235535,421.620605 
	C445.898712,435.149628 462.741608,448.457397 479.536804,461.823425 
	C479.724335,461.972656 480.155975,461.815125 481.000000,461.777069 
	C481.000000,460.214142 481.000000,458.631165 481.000000,457.048218 
	C481.000000,370.742218 481.043549,284.436157 480.938293,198.130280 
	C480.926697,188.626480 479.019379,179.333221 472.383057,172.015854 
	C467.153931,166.250137 460.422699,162.859192 452.516846,161.969131 
	C446.750671,161.319946 440.799042,161.127060 436.542908,156.101440 
	C432.025513,150.767303 431.891663,144.691727 433.936890,138.634964 
	C436.141846,132.105133 441.079895,129.141754 448.166656,128.920853 
	C467.426666,128.320450 483.492310,135.404526 496.482269,149.154877 
	C505.038727,158.212204 510.538727,169.152863 512.615845,181.865387 
	C513.000000,288.687561 513.000000,395.375122 512.653992,502.622711 
	C509.205322,506.455170 506.102661,509.727570 503.000000,513.000000 
	C499.307098,513.000000 495.614166,513.000000 491.460632,513.000000 
z"/>
<path fill="#ffffff" opacity="1.000000" stroke="none" 
	d="
M207.000000,129.000000 
	C174.861313,129.000000 143.222641,129.004700 111.583954,128.996918 
	C102.873672,128.994781 97.002922,122.787460 97.000000,113.622414 
	C96.996742,103.416145 102.498451,97.006317 111.338242,97.005051 
	C176.447311,96.995697 241.556396,96.996483 306.665466,97.004539 
	C314.607605,97.005516 320.367920,103.341736 321.136871,111.114807 
	C322.275696,122.627686 313.689087,129.441315 303.410248,129.234955 
	C271.451477,128.593369 239.471664,129.000000 207.000000,129.000000 
z"/>
<path fill="#ffffff" opacity="1.000000" stroke="none" 
	d="
M231.993515,193.000000 
	C191.708893,193.000000 151.922943,193.001068 112.137009,192.999237 
	C102.389183,192.998795 96.994453,187.001816 97.000000,176.185349 
	C97.004776,166.869415 102.902206,161.000793 112.268105,161.000534 
	C155.549881,160.999313 198.831650,160.997971 242.113419,161.001602 
	C251.628296,161.002396 257.011932,167.183060 257.000031,178.065079 
	C256.990295,186.956482 250.920456,192.992996 241.980896,192.999634 
	C238.817993,193.001984 235.655106,193.000000 231.993515,193.000000 
z"/>
</svg>