<svg xmlns="http://www.w3.org/2000/svg" id="Layer_1" data-name="Layer 1" version="1.1" viewBox="329.99 193.02 340 313.97">
  <defs>
    <style>
      .cls-1 {
        fill: #ffffff;
        stroke-width: 0px;
      }
    </style>
  </defs>
  <path class="cls-1" d="M668.12,403.02l.04-.21c2.43-8.83,2.43-17.97.04-26.47l-.06-.21.06-.21c2.39-8.79,2.39-17.88.02-26.34l-.06-.21.04-.21c2.39-8.8,2.39-17.9,0-26.32l-.06-.23.06-.2c2.39-8.78,2.39-17.89,0-26.35l-.06-.2.03-.23c4.99-18.27-.42-36.75-14.43-49.45-5.43-4.89-12.01-9.34-20.67-14.05,0,0-73.98-38.15-74.6-38.48l-1.18-.63-227.3,129.66v137.17l1.66.54c.88.3,1.76.58,2.6.86l28.29,9.29c54.32,17.82,65.62,21.53,68.29,22.33l.75.23-.02.09c30.56,9.17,59.87,13.8,87.09,13.8,39.75,0,76.07-9.85,107.93-29.29,13.93-8.51,25.08-18.61,33.13-30.09,6.73-9.57,10.28-20.36,10.28-31.19,0-4.48-.62-8.91-1.82-13.17l-.05-.21ZM339.86,322.58l217.52-124.09.39.21c3.93,2.04,17.52,9.03,64.56,33.3l8.5,4.37c4.14,2.25,7.76,4.4,11.06,6.65,3.19,2.18,6,4.38,8.64,6.73,10.34,9.38,15.57,21.87,14.7,35.22-.19,3.7-.9,7.44-2.08,11.08-.86,2.79-2,5.56-3.43,8.29-1.11,2.13-2.27,4.06-3.58,5.9-.09.17-.21.35-.34.55-2.43,3.44-5.14,6.77-8.07,9.89-1.5,1.54-3.05,3.1-4.67,4.6-4.29,4-9.09,7.76-14.26,11.19-1.51,1.03-3.06,2.06-4.69,3.04l-1.63.98c-6.28,3.75-12.71,7.11-19.14,10.02-2.09.94-4.84,2.16-7.67,3.3-23.66,9.49-49.5,14.28-77.05,14.28-6.34,0-12.77-.25-19.27-.76-3.55-.25-7.17-.6-11.08-1.08-8.67-1-17.69-2.49-26.74-4.41-2.93-.62-6.04-1.33-9.28-2.11-6.7-1.63-13.4-3.45-19.92-5.41l-11.5-3.76c-4.79-1.58-11.57-3.83-21.26-6.96l-37.97-12.47c-6.56-2.15-13.74-4.51-21.58-7.07l-1.7-.58,1.55-.89ZM655.79,444.84c-3.83,5.44-8.39,10.6-13.68,15.38-5.29,4.81-11.33,9.27-18.01,13.35-31.23,19.06-66.5,28.61-105.46,28.61-27.04,0-55.86-4.62-86.34-13.82-.17-.04-5.96-1.96-18.01-5.96-22.85-7.59-61.4-20.34-78.93-26.12l-.56-.19v-21.69l7.24,2.37c4.5,1.5,8.79,2.91,12.84,4.22,2.84.93,5.58,1.83,8.21,2.69,53.08,17.42,65.1,21.35,67.77,22.17l.73.24-.02.09c30.59,9.15,59.87,13.81,87.09,13.81,39.75,0,76.07-9.87,107.93-29.33,13.93-8.5,25.08-18.6,33.13-30.08,1.54-2.18,2.88-4.43,4.02-6.62l1.37-2.67.15,2.99c.5,10.47-2.75,21.02-9.47,30.57ZM665.22,392.28c-.25,3.68-.94,7.36-2.11,10.98-1.61,5.01-4.06,9.92-7.32,14.54-7.65,10.92-18.3,20.59-31.69,28.76-31.23,19.04-66.5,28.59-105.46,28.59-27.04,0-55.86-4.58-86.34-13.81-.38-.11-34.8-11.4-62.18-20.4-2.83-.92-5.58-1.81-8.23-2.69-5.51-1.82-13.69-4.6-20.34-6.84l-6.75-2.28v-21.47l96.04,31.51c30.76,9.31,60.3,14.06,87.82,14.06,39.75,0,76.07-9.87,107.93-29.33,13.26-8.11,24.01-17.67,31.95-28.46.31-.39.59-.77.86-1.16l.32-.47c.94-1.32,1.82-2.69,2.68-4.16.48-.81.96-1.63,1.36-2.49l1.35-2.71.17,3.03c.09,1.58.06,3.18-.06,4.79ZM665.22,365.27c-.19,3.66-.9,7.4-2.08,11.07-.86,2.8-2.05,5.64-3.51,8.45-1.11,2.09-2.27,4.02-3.58,5.86l-.22.38c-7.68,10.92-18.33,20.59-31.73,28.75-31.23,19.06-66.52,28.61-105.46,28.61-27.04,0-55.86-4.6-86.32-13.8v-.02c-.88-.26-5.46-1.78-32.44-10.62-2.53-.83-5.26-1.74-8.21-2.69l-9.59-3.16c-3.8-1.23-7.91-2.58-12.3-4.01l-8.19-2.7c-3.2-1.07-8.41-2.73-13.84-4.47-4.32-1.38-8.74-2.8-12.39-3.98l-.56-.18v-21.88l96.04,31.51c30.76,9.31,60.3,14.04,87.82,14.04,39.75,0,76.07-9.86,107.93-29.32,7.63-4.66,14.49-9.83,20.38-15.4,1.54-1.45,3.05-2.97,4.51-4.53,2.6-2.78,5.03-5.68,7.15-8.63l1.09-1.52c.99-1.39,1.91-2.84,2.76-4.31.46-.77.89-1.54,1.28-2.31l1.35-2.63.17,2.95c.09,1.48.06,2.99-.06,4.53ZM665.22,338.51c-.19,3.68-.9,7.41-2.08,11.08-.86,2.81-2.03,5.6-3.43,8.29-1.11,2.13-2.29,4.06-3.58,5.9-.09.17-.21.35-.34.55-2.52,3.55-5.29,6.92-8.24,10.02-1.62,1.7-3.16,3.23-4.67,4.64-5.52,5.06-11.82,9.78-18.78,14.04-31.23,19.07-66.52,28.62-105.49,28.62-27.03,0-55.82-4.61-86.29-13.82l-2.68-.85c-1.58-.55-4.13-1.37-8.2-2.69l-22.88-7.52c-2.24-.73-4.61-1.53-7.18-2.36l-21.6-7.07c-2.63-.88-5.36-1.77-8.2-2.69-3.06-1.02-7.95-2.6-13.09-4.28-4.52-1.46-9.27-2.98-13.14-4.24l-.56-.19v-21.8l19.78,6.48c2.85.94,5.57,1.84,8.2,2.69l21.58,7.09c2.91.94,5.66,1.84,8.23,2.71l21.58,7.06c3.32,1.08,6.01,1.96,8.2,2.66,5.25,1.71,7.49,2.43,8.48,2.74l.75.24-.02.09c4.49,1.32,8.98,2.58,13.33,3.74,3.01.79,6.02,1.51,8.99,2.2,22.45,5.23,44.24,7.89,64.77,7.89,39.75,0,76.07-9.88,107.93-29.34.49-.3.99-.59,1.46-.89,2.22-1.41,4.2-2.74,6.06-4.06,4.68-3.29,9.05-6.86,13.01-10.62,1.48-1.39,2.96-2.86,4.49-4.53,2.63-2.8,4.98-5.66,7.01-8.45.37-.51.75-1.01,1.1-1.52.96-1.37,1.91-2.81,2.76-4.32.46-.76.89-1.54,1.28-2.31l1.35-2.64.17,2.95c.09,1.5.06,3.01-.06,4.53ZM665.22,311.76c-.19,3.68-.9,7.41-2.08,11.07-.86,2.78-2,5.55-3.43,8.28-1.11,2.14-2.29,4.06-3.58,5.89-.09.17-.21.38-.34.56-2.43,3.44-5.14,6.77-8.07,9.9-1.76,1.78-3.23,3.24-4.67,4.59-4.29,4-9.15,7.79-14.47,11.34-1.46.99-2.95,1.95-4.49,2.89-.62.38-1.24.74-1.85,1.1-30.72,18.29-65.43,27.47-103.65,27.47-18.14,0-37.06-2.07-56.74-6.19-2.96-.62-6.08-1.33-9.28-2.12-6.51-1.53-13.34-3.4-20.28-5.49-.26-.09-1.26-.41-2.93-.98-1.93-.6-4.75-1.52-8.23-2.68-5.74-1.88-13.31-4.35-21.58-7.07l-30.03-9.89c-2.72-.88-5.38-1.75-7.94-2.58-7.11-2.33-18.18-5.83-24.88-7.94l-1.91-.62v-21.92l96.04,31.5c4.3,1.31,8.79,2.59,13.74,3.89,3.01.79,6,1.54,8.98,2.25,8.65,2,17.32,3.65,25.73,4.92,3.4.51,6.85.95,10.51,1.36,9.84,1.09,19.55,1.64,28.87,1.64,30.04,0,58.25-5.66,83.83-16.78,2.44-1.07,4.92-2.2,7.34-3.4,5.78-2.8,11.42-5.88,16.76-9.15.56-.31,1.07-.65,1.59-1,2.18-1.35,4.21-2.69,6.15-4.08,4.71-3.35,9.01-6.88,12.77-10.47,1.64-1.56,3.12-3.03,4.51-4.54,2.63-2.81,4.98-5.67,7.01-8.46.37-.51.75-1,1.1-1.51.96-1.37,1.91-2.83,2.76-4.32.46-.77.89-1.56,1.28-2.34l1.35-2.63.17,2.95c.09,1.52.06,3.04-.06,4.55Z"/>
  <path class="cls-1" d="M634.57,282.99l-.02.36c-.06,1.04-.28,2.2-.66,3.38l-.05.24c-.32,1.02-.75,2.05-1.35,3.17-.51.96-1.01,1.8-1.54,2.57l-.54.77c-1.49,2.11-3.17,4.17-4.97,6.09-1.06,1.11-2.18,2.18-3.29,3.25-3.1,2.86-6.58,5.59-10.34,8.1l-.19.12c-1.16.77-2.33,1.54-3.53,2.27l-1.35.84c-5.27,3.13-10.68,5.95-16,8.37-1.77.81-4.11,1.83-6.53,2.8-19.97,8.01-42,12.1-65.48,12.1-5.54,0-11.26-.25-17-.69l-.24-.02c-3.01-.2-6.13-.51-9.65-.94-7.75-.9-15.8-2.24-24.03-3.98-2.63-.55-5.44-1.2-8.35-1.91-6.05-1.45-12.09-3.1-17.95-4.86l-12-3.92c-3.93-1.29-9.12-3-15.89-5.22l144.48-82.43c10.73,5.51,28.58,14.73,58.36,30.09,3.11,1.69,5.8,3.32,8.11,4.88,2.06,1.39,3.8,2.75,5.35,4.13,3.33,3.03,4.91,6.56,4.65,10.47Z"/>
</svg>