<svg xmlns="http://www.w3.org/2000/svg" xmlns:xlink="http://www.w3.org/1999/xlink" preserveAspectRatio="xMidYMid" width="3465" height="1654" viewBox="0 0 3465 1654">
  <defs>
    <style>
      .cls-1, .cls-3 {
        fill: #fff;
        fill-rule: evenodd;
      }

      .cls-2 {
        opacity: 0.3;
      }

      .cls-3 {
        opacity: 0.7;
      }
    </style>
  </defs>
  <g>
    <path d="M202.548,790.888 L111.119,920.418 L314.537,920.418 L278.226,983.305 L58.103,983.288 L35.751,933.570 L95.657,848.728 L160.544,756.824 L311.783,756.824 L292.114,790.888 L202.548,790.888 Z" class="cls-1"/>
    <path d="M27.093,914.303 L1.389,857.143 C24.963,823.751 49.075,789.234 71.957,756.824 L138.284,756.824 L27.093,914.303 Z" class="cls-1"/>
    <path d="M866.995,853.801 L785.988,853.801 L676.842,853.801 L613.454,853.801 L613.454,916.705 L866.995,916.705 L866.995,853.801 Z" class="cls-1"/>
    <path d="M1329.409,787.840 L1163.443,577.526 L1111.675,577.526 L1111.675,916.705 L1175.541,916.705 L1175.541,688.003 L1353.601,916.705 L1393.275,916.705 L1393.275,577.526 L1329.409,577.526 L1329.409,787.840 Z" class="cls-1"/>
    <path d="M1719.722,916.705 L1783.592,916.705 L1783.592,635.585 L1891.008,635.585 L1891.008,577.526 C1792.780,577.526 1710.047,577.526 1612.306,577.526 L1612.306,635.585 L1719.722,635.585 L1719.722,916.705 Z" class="cls-1"/>
    <path d="M2379.058,916.705 L2448.731,916.705 L2296.804,577.526 L2227.130,577.526 L2075.202,916.705 L2144.389,916.705 L2261.967,648.812 L2379.058,916.705 Z" class="cls-1"/>
    <path d="M3395.327,916.705 L3465.001,916.705 L3313.073,577.526 L3243.400,577.526 L3091.464,916.705 L3160.658,916.705 L3278.237,648.812 L3395.327,916.705 Z" class="cls-1"/>
    <path d="M112.038,703.339 L203.468,573.814 L0.049,573.814 L36.360,510.922 L256.483,510.943 L278.835,560.661 L218.929,645.503 L154.039,737.407 L2.804,737.407 L22.469,703.339 L112.038,703.339 Z" class="cls-1"/>
    <path d="M287.495,579.924 L313.194,637.088 C289.623,670.480 265.511,704.994 242.630,737.407 L176.299,737.407 L287.495,579.924 Z" class="cls-1"/>
    <path d="M866.995,717.843 L860.222,717.843 L777.136,717.843 L757.509,717.843 L676.842,717.843 L613.454,717.843 L613.454,777.358 L676.842,777.358 L777.136,777.358 L785.988,777.358 L860.222,777.358 L866.995,777.358 L866.995,717.843 Z" class="cls-1"/>
    <path d="M2726.795,577.526 L2662.926,577.526 C2662.926,690.586 2662.926,803.645 2662.926,916.705 L2900.987,916.705 L2900.987,857.673 L2726.795,857.673 C2726.795,828.690 2726.795,799.715 2726.795,770.732 L2834.723,729.050 L2834.723,678.517 L2726.795,720.199 L2726.795,577.526 Z" class="cls-1"/>
    <path d="M676.842,639.456 L757.509,639.456 L866.995,639.456 L866.995,577.526 L613.454,577.526 L613.454,639.456 L676.842,639.456 Z" class="cls-1"/>
  </g>
  <g class="cls-2">
    <path d="M1891.676,980.295 L1571.674,1433.649 L2283.639,1433.649 L2156.550,1653.756 L1386.120,1653.696 L1307.887,1479.681 L1517.558,1182.736 L1744.662,861.072 L2273.997,861.072 L2205.155,980.295 L1891.676,980.295 Z" class="cls-1"/>
    <path d="M1277.582,1412.248 L1187.619,1212.189 C1270.129,1095.316 1354.520,974.507 1434.608,861.072 L1666.751,861.072 L1277.582,1412.248 Z" class="cls-1"/>
    <path d="M1574.892,673.874 L1894.897,220.535 L1182.930,220.535 L1310.018,0.414 L2080.449,0.489 L2158.682,174.503 L1949.010,471.449 L1721.895,793.112 L1192.573,793.112 L1261.400,673.874 L1574.892,673.874 Z" class="cls-1"/>
    <path d="M2188.989,241.921 L2278.937,441.996 C2196.438,558.868 2112.048,679.665 2031.963,793.112 L1799.805,793.112 L2188.989,241.921 Z" class="cls-1"/>
  </g>
  <path d="M2975.381,1110.411 L2975.381,1152.711 L2964.881,1152.711 L2964.881,1110.411 L2924.531,1048.011 L2924.531,1047.711 L2936.681,1047.711 L2970.131,1100.211 L3004.031,1047.711 L3016.331,1047.711 L3016.331,1048.011 L2975.381,1110.411 ZM2817.729,1144.611 C2830.127,1144.611 2840.627,1140.313 2849.229,1131.711 L2855.979,1138.461 C2845.378,1149.062 2832.628,1154.361 2817.729,1154.361 C2800.329,1154.361 2786.904,1149.287 2777.454,1139.136 C2768.004,1128.988 2763.227,1116.212 2763.129,1100.811 C2763.028,1091.012 2764.952,1082.061 2768.904,1073.961 C2772.853,1065.861 2779.052,1059.212 2787.504,1054.011 C2795.953,1048.813 2806.029,1046.211 2817.729,1046.211 C2825.027,1046.211 2831.953,1047.538 2838.504,1050.186 C2845.052,1052.837 2850.527,1056.763 2854.929,1061.961 L2848.479,1068.411 C2839.978,1060.011 2829.729,1055.811 2817.729,1055.811 C2803.828,1055.811 2793.002,1060.187 2785.254,1068.936 C2777.503,1077.688 2773.629,1088.263 2773.629,1100.661 C2773.629,1113.561 2777.454,1124.113 2785.104,1132.311 C2792.754,1140.512 2803.629,1144.611 2817.729,1144.611 ZM2606.381,1068.261 L2606.681,1099.311 L2606.681,1152.711 L2596.181,1152.711 L2596.181,1047.711 L2602.781,1047.711 L2670.731,1132.911 L2670.131,1098.111 L2670.131,1047.711 L2680.631,1047.711 L2680.631,1152.711 L2674.331,1152.711 L2606.381,1068.261 ZM2437.931,1047.711 L2511.881,1047.711 L2511.881,1057.611 L2448.431,1057.611 L2448.431,1095.261 L2509.031,1095.261 L2509.031,1105.011 L2448.431,1105.011 L2448.431,1142.811 L2513.231,1142.811 L2513.231,1152.711 L2437.931,1152.711 L2437.931,1047.711 ZM2313.732,1154.211 C2296.332,1154.211 2282.907,1149.088 2273.457,1138.836 C2264.007,1128.587 2259.282,1115.912 2259.282,1100.811 C2259.181,1084.611 2264.131,1071.411 2274.132,1061.211 C2284.130,1051.011 2297.330,1045.911 2313.732,1045.911 C2328.830,1045.911 2341.681,1051.161 2352.282,1061.661 L2345.982,1068.411 C2341.880,1064.312 2336.956,1061.188 2331.207,1059.036 C2325.455,1056.887 2319.631,1055.811 2313.732,1055.811 C2300.030,1055.811 2289.256,1060.161 2281.407,1068.861 C2273.555,1077.561 2269.681,1088.162 2269.782,1100.661 C2269.782,1112.863 2273.607,1123.138 2281.257,1131.486 C2288.907,1139.837 2299.730,1144.011 2313.732,1144.011 C2325.331,1144.011 2335.381,1140.212 2343.882,1132.611 L2343.882,1106.061 L2309.532,1106.061 L2309.532,1096.311 L2353.932,1096.311 L2353.932,1136.961 C2342.731,1148.462 2329.332,1154.211 2313.732,1154.211 ZM2170.483,1128.411 L2109.583,1128.411 L2098.783,1152.711 L2087.683,1152.711 L2134.783,1047.711 L2145.283,1047.711 L2192.383,1152.711 L2181.283,1152.711 L2170.483,1128.411 ZM2140.033,1059.111 L2113.783,1118.811 L2166.283,1118.811 L2140.033,1059.111 ZM1836.587,1068.261 L1836.887,1099.311 L1836.887,1152.711 L1826.387,1152.711 L1826.387,1047.711 L1832.987,1047.711 L1900.937,1132.911 L1900.337,1098.111 L1900.337,1047.711 L1910.837,1047.711 L1910.837,1152.711 L1904.537,1152.711 L1836.587,1068.261 ZM1730.914,1137.861 C1726.662,1142.961 1721.089,1147.037 1714.189,1150.086 C1707.289,1153.136 1699.538,1154.661 1690.939,1154.661 C1679.539,1154.661 1669.714,1152.013 1661.464,1146.711 C1653.214,1141.412 1647.188,1134.737 1643.389,1126.686 C1639.587,1118.638 1637.689,1109.863 1637.689,1100.361 C1637.689,1084.963 1642.463,1072.037 1652.014,1061.586 C1661.562,1051.138 1674.537,1045.911 1690.939,1045.911 C1707.837,1046.012 1720.939,1051.386 1730.239,1062.036 C1739.539,1072.686 1744.137,1085.511 1744.039,1100.511 C1744.039,1107.512 1742.914,1114.213 1740.664,1120.611 C1738.414,1127.012 1735.163,1132.761 1730.914,1137.861 ZM1722.439,1068.786 C1715.037,1060.236 1704.537,1055.912 1690.939,1055.811 C1677.338,1055.811 1666.763,1060.037 1659.214,1068.486 C1651.662,1076.938 1647.987,1087.611 1648.189,1100.511 C1648.287,1108.412 1649.862,1115.638 1652.914,1122.186 C1655.963,1128.737 1660.763,1134.137 1667.314,1138.386 C1673.862,1142.638 1681.737,1144.761 1690.939,1144.761 C1704.439,1144.761 1714.887,1140.437 1722.289,1131.786 C1729.688,1123.138 1733.438,1112.713 1733.539,1100.511 C1733.539,1087.911 1729.838,1077.336 1722.439,1068.786 ZM1544.840,1047.711 L1555.340,1047.711 L1555.340,1152.711 L1544.840,1152.711 L1544.840,1047.711 ZM1430.841,1152.711 L1420.341,1152.711 L1420.341,1057.611 L1383.291,1057.611 L1383.291,1047.711 L1467.891,1047.711 L1467.891,1057.611 L1430.841,1057.611 L1430.841,1152.711 ZM1305.741,1128.411 L1244.841,1128.411 L1234.041,1152.711 L1222.941,1152.711 L1270.041,1047.711 L1280.541,1047.711 L1327.641,1152.711 L1316.541,1152.711 L1305.741,1128.411 ZM1275.291,1059.111 L1249.041,1118.811 L1301.541,1118.811 L1275.291,1059.111 ZM1107.593,1153.011 L1062.893,1047.711 L1074.443,1047.711 L1113.443,1141.461 L1151.843,1047.711 L1163.543,1047.711 L1119.293,1153.011 L1107.593,1153.011 ZM982.569,1137.861 C978.317,1142.961 972.744,1147.037 965.844,1150.086 C958.944,1153.136 951.193,1154.661 942.594,1154.661 C931.194,1154.661 921.369,1152.013 913.119,1146.711 C904.869,1141.412 898.843,1134.737 895.044,1126.686 C891.242,1118.638 889.344,1109.863 889.344,1100.361 C889.344,1084.963 894.118,1072.037 903.669,1061.586 C913.217,1051.138 926.192,1045.911 942.594,1045.911 C959.492,1046.012 972.594,1051.386 981.894,1062.036 C991.194,1072.686 995.792,1085.511 995.694,1100.511 C995.694,1107.512 994.569,1114.213 992.319,1120.611 C990.069,1127.012 986.818,1132.761 982.569,1137.861 ZM974.094,1068.786 C966.692,1060.236 956.192,1055.912 942.594,1055.811 C928.993,1055.811 918.418,1060.037 910.869,1068.486 C903.317,1076.938 899.642,1087.611 899.844,1100.511 C899.942,1108.412 901.517,1115.638 904.569,1122.186 C907.618,1128.737 912.418,1134.137 918.969,1138.386 C925.517,1142.638 933.392,1144.761 942.594,1144.761 C956.094,1144.761 966.542,1140.437 973.944,1131.786 C981.343,1123.138 985.093,1112.713 985.194,1100.511 C985.194,1087.911 981.493,1077.336 974.094,1068.786 ZM732.745,1068.261 L733.045,1099.311 L733.045,1152.711 L722.545,1152.711 L722.545,1047.711 L729.145,1047.711 L797.095,1132.911 L796.495,1098.111 L796.495,1047.711 L806.995,1047.711 L806.995,1152.711 L800.695,1152.711 L732.745,1068.261 ZM559.197,1068.261 L559.497,1099.311 L559.497,1152.711 L548.997,1152.711 L548.997,1047.711 L555.597,1047.711 L623.547,1132.911 L622.947,1098.111 L622.947,1047.711 L633.447,1047.711 L633.447,1152.711 L627.147,1152.711 L559.197,1068.261 ZM449.398,1047.711 L459.898,1047.711 L459.898,1152.711 L449.398,1152.711 L449.398,1047.711 Z" class="cls-3"/>
</svg>
